<?xml version="1.0" encoding="utf-8"?>
<!-- Generator: Adobe Illustrator 23.0.2, SVG Export Plug-In . SVG Version: 6.00 Build 0)  -->
<svg version="1.1" id="chat" xmlns="http://www.w3.org/2000/svg" xmlns:xlink="http://www.w3.org/1999/xlink" x="0px" y="0px"
	 viewBox="0 0 48 48" style="enable-background:new 0 0 48 48;" xml:space="preserve">
<style type="text/css">
	.st0{fill-rule:evenodd;clip-rule:evenodd;fill:#484848;}
</style>
<path class="st0" d="M24,8C13.2,8,7,14.4,7,23.6c0,0.1,0,0.2,0,0.3l0,0V44l6.9-6.9c3,1.8,6.5,2.8,10.1,2.7c10.8,0,17-6.7,17-15.9
	C41,14.7,34.8,8,24,8z M16,27c-1.7,0-3-1.3-3-3s1.3-3,3-3s3,1.3,3,3S17.7,27,16,27z M24,27c-1.7,0-3-1.3-3-3s1.3-3,3-3s3,1.3,3,3
	S25.7,27,24,27z M32,27c-1.7,0-3-1.3-3-3s1.3-3,3-3s3,1.3,3,3S33.7,27,32,27z"/>
</svg>
