<?xml version="1.0" encoding="utf-8"?>
<!-- Generator: Adobe Illustrator 23.0.2, SVG Export Plug-In . SVG Version: 6.00 Build 0)  -->
<svg version="1.1"
	 id="svg8" xmlns:cc="http://creativecommons.org/ns#" xmlns:dc="http://purl.org/dc/elements/1.1/" xmlns:inkscape="http://www.inkscape.org/namespaces/inkscape" xmlns:rdf="http://www.w3.org/1999/02/22-rdf-syntax-ns#" xmlns:sodipodi="http://sodipodi.sourceforge.net/DTD/sodipodi-0.dtd" xmlns:svg="http://www.w3.org/2000/svg"
	 xmlns="http://www.w3.org/2000/svg" xmlns:xlink="http://www.w3.org/1999/xlink" x="0px" y="0px" viewBox="0 0 32 32"
	 style="enable-background:new 0 0 32 32;" xml:space="preserve">
<style type="text/css">
	.st0{fill:#484848;}
</style>
<g id="layer1" transform="translate(0,-288.53332)">
	<path id="rect965" class="st0" d="M16,298.2L4,308.5v10.1c0,0.6,0.4,1,1,1h6c0.6,0,1-0.4,1-1v-11h8v11c0,0.6,0.4,1,1,1h6
		c0.6,0,1-0.4,1-1v-10.1L16,298.2z"/>
	<path id="path984" class="st0" d="M15.3,289.8l-14,12C1.1,302,1,302.2,1,302.5v5c0,0.9,1,1.3,1.7,0.8L16,296.9l13.4,11.4
		c0.6,0.6,1.6,0.1,1.6-0.8v-5c0-0.3-0.1-0.6-0.3-0.8l-14-12C16.3,289.5,15.7,289.5,15.3,289.8z"/>
</g>
</svg>
