<?xml version="1.0" encoding="utf-8"?>
<!-- Generator: Adobe Illustrator 23.0.2, SVG Export Plug-In . SVG Version: 6.00 Build 0)  -->
<svg version="1.1" id="image" xmlns="http://www.w3.org/2000/svg" xmlns:xlink="http://www.w3.org/1999/xlink" x="0px" y="0px"
	 viewBox="0 0 48 48" style="enable-background:new 0 0 48 48;" xml:space="preserve">
<style type="text/css">
	.st0{fill:#484848;}
	.st1{fill-rule:evenodd;clip-rule:evenodd;fill:#484848;}
</style>
<path class="st0" d="M6,11v26l13-13l5,5l11-11l7,7V11H6z M24.5,22c-1.4,0-2.5-1.1-2.5-2.5s1.1-2.5,2.5-2.5s2.5,1.1,2.5,2.5
	S25.9,22,24.5,22z"/>
<path class="st1" d="M6,38.7l13-13l5,5l11-11l7,7v12H6z M24.5,17.6c1.1,0,1.9,0.8,1.9,1.9s-0.8,1.9-1.9,1.9s-1.9-0.8-1.9-1.9
	S23.4,17.6,24.5,17.6z"/>
</svg>
