<?xml version="1.0" encoding="utf-8"?>
<!-- Generator: Adobe Illustrator 23.0.2, SVG Export Plug-In . SVG Version: 6.00 Build 0)  -->
<svg version="1.1" id="Layer_1" xmlns="http://www.w3.org/2000/svg" xmlns:xlink="http://www.w3.org/1999/xlink" x="0px" y="0px"
	 viewBox="0 0 100 100" style="enable-background:new 0 0 100 100;" xml:space="preserve">
<style type="text/css">
	.st0{fill:url(#SVGID_1_);}
	.st1{fill:#050505;}
</style>
<g>
	<linearGradient id="SVGID_1_" gradientUnits="userSpaceOnUse" x1="31.6742" y1="71.0109" x2="41.0622" y2="87.2713">
		<stop  offset="0" style="stop-color:#F5B1E2"/>
		<stop  offset="0.2207" style="stop-color:#E619F0"/>
		<stop  offset="0.5838" style="stop-color:#8633FC"/>
		<stop  offset="1" style="stop-color:#39B8FE"/>
	</linearGradient>
	<path class="st0" d="M36.4,88.5c-5.2,0-9.4-4.2-9.4-9.4c0-5.2,4.2-9.4,9.4-9.4s9.4,4.2,9.4,9.4C45.8,84.3,41.5,88.5,36.4,88.5z
		 M36.4,74.1c-2.8,0-5,2.3-5,5c0,2.8,2.3,5,5,5c2.8,0,5-2.3,5-5C41.4,76.4,39.1,74.1,36.4,74.1z"/>
</g>
<g>
	<path class="st1" d="M83.8,21.5c-6.1-6-14-9.4-22.4-9.4c-6.2,0-12.2,2-17.2,5.3c-1.1-3.4-4.1-5.9-7.7-5.9c-4.5,0-8.1,3.7-8.1,8.4
		v39.2c0,0,0,0,0,0c0.1,1.3,0.5,2.6,1.2,3.6c0.7,1.3,1.8,2.4,3.6,3.2c1,0.4,2.1,0.7,3.3,0.7c0.1,0,0.1,0,0.2,0c0,0,0,0,0.1,0
		c0,0,0.1,0,0.2,0c4.3-0.3,7.6-3.8,7.6-8.1c0,0,0,0,0,0c0-0.3,0-0.5,0-0.8c0,0,0-0.1,0-0.1l0,0v-9.8c0-10.2,7.6-18.5,16.8-18.5
		c4.2,0,8.3,1.7,11.3,4.7c3.4,3.3,8.4,3,11.5-0.4c1.4-1.5,2.1-3.5,2.2-5.4v0C86.5,25.7,85.6,23.2,83.8,21.5z"/>
</g>
<g>
</g>
</svg>
