<?xml version="1.0" encoding="utf-8"?>
<!-- Generator: Adobe Illustrator 24.0.2, SVG Export Plug-In . SVG Version: 6.00 Build 0)  -->
<svg version="1.1" id="Layer_1" xmlns="http://www.w3.org/2000/svg" xmlns:xlink="http://www.w3.org/1999/xlink" x="0px" y="0px"
	 viewBox="0 0 960 540" style="enable-background:new 0 0 960 540;" xml:space="preserve">
<style type="text/css">
	.st0{fill:#FFFFFF;}
	.st1{fill:url(#SVGID_1_);}
</style>
<g id="_x23_ffffffff">
	<path class="st0" d="M636.3,83c0-8.8,7.6-17.5,16.8-17c9-0.3,16.7,8.2,16.6,17c-0.1,28.7,0.2,57.4,0.1,86.1
		c-0.2,32.3-0.1,64.7,0,97c0.4,8.2-5.5,16.3-13.6,17.9c-8.2,1.7-16.7-3.6-19.4-11.3c-14.2,10.2-32.6,14.2-49.8,11.1
		c-16.1-2.7-30.9-11.8-41.1-24.6c-20.4-24.8-22.1-63-4.1-89.5c9.6-14.7,24.9-25.9,42.2-29.7c17.9-4.2,37.1,0,52.4,10
		C636.3,127.6,636.2,105.3,636.3,83 M589.5,175.7c-12.1,3.1-21.6,13.4-25.1,25.2c-3.7,12-0.6,25.6,7.5,35.1
		c8.5,10.3,23.2,15.2,36,11.1c11.8-3.4,21-13.5,24.3-25.1c4.6-15.1-1.7-32.7-14.8-41.5C609.4,174.9,598.9,173.2,589.5,175.7z"/>
	<path class="st0" d="M830.1,147.9c0.2-8.6,8.3-16.2,16.9-15.6c6.8,0.2,12.9,5.1,15.3,11.5c10.5-6.8,23.1-10.6,35.7-10.2
		c16.5,0.3,32.6,7.7,44.1,19.5c6.6,6.9,6,19.4-1.5,25.5c-5.9,5.3-15.9,5.1-21.5-0.5c-7.2-7.3-18-11.3-28.2-9.2
		c-14.1,2.7-25.1,15.4-27.2,29.4c-1.4,9.2-0.5,18.6-0.7,27.8c-0.1,3.7-1,7.6-3.4,10.5c-5.6,7.6-18.1,8.3-24.8,1.7
		c-2.8-3-4.8-7-4.7-11.2C830.1,200.7,830.1,174.3,830.1,147.9z"/>
	<path class="st0" d="M133.6,149.6c2.8-6.4,9.1-11.9,16.4-11.6c9.3-0.1,16.8,8.9,16.7,17.9c0,43.7,0,87.4,0,131.1
		c-0.2,19-7.5,38-20.7,51.8c-11.4,12.3-27.4,20.3-44.1,21.5c-22.4,2-45.4-8.3-59.1-26.1c-5.6-7.9-4.5-20.1,3.3-26.2
		c5.2-4.4,13.3-4.9,18.9-1.1c3.1,1.9,5,5.1,7.6,7.5c8.1,7.5,19.7,10.8,30.5,8.6c12.8-2.4,23.5-12.4,27.5-24.6c2.7-7.7,2.1-16,2.1-24
		c-13.8,8.4-30.9,11.6-46.8,8.4c-13.7-2.6-26.4-9.9-35.9-20c-11.2-11.9-18.2-27.6-19.7-43.8c-1.5-15.8,1.9-32.1,10.1-45.7
		c8.4-14.3,22-25.8,38-30.8C96.7,136.8,117.5,139.1,133.6,149.6 M91.5,176.7c-15.2,3.2-26.6,17.9-27.2,33.2
		c-0.6,9.8,3.2,19.6,9.9,26.8c9.3,10.5,25.6,14.1,38.2,7.7c15.9-7.2,24-26.9,18.7-43.4C126.6,184.5,108.5,172.5,91.5,176.7z"/>
	<path class="st0" d="M244,141c13.8-2.1,28.4,0.5,40.4,7.6c13.2,7.6,23.4,19.9,29.3,33.9c3.7,8.6,6.9,18.5,3.4,27.6
		c-2,6.1-6.8,12.4-13.8,12.3c-27.9,0.1-55.7,0-83.6,0.1c3.3,12.1,12.7,22.7,24.9,26.1c11.6,3.2,24.4-0.1,34-6.9
		c4.3-3.8,9.2-8.2,15.4-7.5c10.6,0,18.4,11.7,15.9,21.7c-0.7,4-2.9,7.5-5.8,10.2c-11.8,11.5-28,17.8-44.2,19.2
		c-16.8,1.6-34.1-3.4-47.2-13.9c-17.2-13.6-27.6-35.4-27.1-57.4c-0.9-17.4,5.3-34.8,16.1-48.3C212,152.6,227.4,143.4,244,141
		 M224.8,192.1c18.5-0.1,37,0.2,55.5-0.2c-5.6-9.4-16.2-15.9-27.3-15.5C241.8,176.6,231.1,182.9,224.8,192.1z"/>
	<path class="st0" d="M332.5,158.4c-0.2-8.7,6.4-17.6,15.4-18.3c5.5-0.7,10.7,2.4,14.2,6.5c19.8-10.5,46-6.6,62,9.2
		c12.2-12,30.2-17.5,47-14.2c20.6,3.6,37.7,20.4,42.5,40.7c2,7.1,1.3,14.6,1.4,21.9c0,21.3,0,42.7,0,64c0.2,8.2-6.6,16.2-14.9,16.7
		c-9.4,1-18.2-7.4-18.3-16.7c-0.1-24.3-0.1-48.6,0-73c-0.3-9.5-8.6-17.5-17.9-18.4c-10.5-1.5-22.4,6.2-23.1,17.3
		c-0.1,23.7,0,47.4,0,71.1c-0.1,5.9-1.7,12.3-6.5,16.1c-6.4,5.4-17,4.5-22.4-2c-3.7-4.1-4.6-9.9-4.5-15.2c0-23.3,0.1-46.6,0-69.9
		c-0.5-6.4-4.8-12.3-10.5-15.1c-7.8-4.2-18.2-2.9-24.7,3.1c-3.6,3.3-6.1,8-5.9,12.9c0,24,0,48,0,72c0,6.4-3.1,13.1-8.8,16.3
		c-6,3.4-14.2,2.4-19.1-2.5c-4.1-3.7-5.8-9.4-5.7-14.7C332.5,230.2,332.4,194.3,332.5,158.4z"/>
	<path class="st0" d="M720,149.2c14-7.6,31-9.8,46.4-5.8c19.3,5.2,35.3,19.8,43.3,37.9c4.2,8.9,7.8,19.2,4.4,28.9
		c-1.9,5.9-6.5,12.1-13.3,12.3c-28.2,0-56.3,0-84.5,0c3,11.4,11,21.8,22.1,26.2c11.2,4.6,24.1,1.9,34.4-3.8c5.4-3,9.3-9.2,16-9.5
		c10.2-1.4,19.5,8.6,18.4,18.6c-0.3,4.7-2.6,9.1-6,12.4c-13.2,12.5-31.3,19-49.3,19.3c-13.8,0.4-27.5-3.9-38.8-11.8
		c-10.9-7.6-19.5-18.4-24.6-30.6c-7.7-18.3-7.9-39.6-0.4-58C694.3,170,705.5,156.8,720,149.2 M721.3,193.2c19,0.1,37.9,0,56.9,0
		c-5.2-10.3-16.5-17.3-28.1-16.8C738.4,176.6,727.5,183.6,721.3,193.2z"/>
	<path class="st0" d="M830.5,254.6c4.3-5.3,11.1-8.8,18-7.9c-3.9,5.2-10.3,7.6-15.7,11C832.2,256.9,831,255.4,830.5,254.6z"/>
</g>
<g>
	<linearGradient id="SVGID_1_" gradientUnits="userSpaceOnUse" x1="835.4279" y1="247.5642" x2="858.2863" y2="287.1559">
		<stop  offset="0" style="stop-color:#F3C1E4"/>
		<stop  offset="0.3376" style="stop-color:#E61EF0"/>
		<stop  offset="0.7234" style="stop-color:#8833FC"/>
		<stop  offset="1" style="stop-color:#45A2FE"/>
	</linearGradient>
	<path class="st1" d="M846.9,290.2c-12.6,0-22.9-10.3-22.9-22.9c0-12.6,10.3-22.9,22.9-22.9s22.9,10.3,22.9,22.9
		C869.7,280,859.5,290.2,846.9,290.2z M846.9,254.5c-7.1,0-12.9,5.8-12.9,12.9c0,7.1,5.8,12.9,12.9,12.9s12.9-5.8,12.9-12.9
		C859.7,260.3,854,254.5,846.9,254.5z"/>
</g>
</svg>
