<?xml version="1.0" encoding="UTF-8" ?>
<!DOCTYPE svg PUBLIC "-//W3C//DTD SVG 1.1//EN" "http://www.w3.org/Graphics/SVG/1.1/DTD/svg11.dtd">
<svg width="1536pt" height="157pt" viewBox="0 0 1536 157" version="1.1" xmlns="http://www.w3.org/2000/svg">
<g id="#ffffffff">
<path fill="#ffffff" opacity="1.00" d=" M 262.27 62.32 C 266.67 58.10 273.09 56.82 278.99 57.07 C 284.62 57.34 290.66 59.17 294.21 63.82 C 296.25 66.41 296.62 69.78 296.89 72.94 C 293.03 73.04 289.17 72.98 285.32 73.01 C 285.73 66.04 276.35 63.97 271.86 67.83 C 269.49 69.71 269.76 74.05 272.56 75.39 C 278.62 79.11 286.14 79.78 291.85 84.18 C 298.83 88.80 299.38 100.53 292.59 105.54 C 288.78 108.57 283.82 109.55 279.07 109.74 C 272.89 109.91 266.33 108.43 261.60 104.24 C 258.42 101.24 257.54 96.74 257.37 92.54 C 261.26 92.52 265.15 92.54 269.05 92.53 C 269.25 95.38 269.98 98.87 273.07 99.92 C 276.35 101.06 280.41 101.33 283.47 99.45 C 286.64 97.22 285.95 92.04 282.51 90.46 C 276.49 87.24 269.44 86.18 263.84 82.08 C 257.13 78.07 256.65 67.45 262.27 62.32 Z" />
<path fill="#ffffff" opacity="1.00" d=" M 1073.42 57.64 C 1080.84 55.99 1089.32 57.67 1094.67 63.32 C 1098.71 67.41 1100.83 73.23 1100.48 78.96 C 1100.23 83.96 1101.00 89.05 1099.96 93.98 C 1098.23 101.28 1092.24 107.47 1084.87 109.10 C 1080.37 110.10 1075.60 109.97 1071.20 108.59 C 1063.00 105.97 1057.01 97.65 1057.26 89.03 C 1057.28 84.70 1057.19 80.36 1057.30 76.03 C 1057.84 67.22 1064.74 59.31 1073.42 57.64 M 1075.48 66.72 C 1071.30 68.14 1069.37 72.77 1069.07 76.86 C 1069.39 83.59 1067.45 91.26 1071.61 97.16 C 1074.94 101.76 1082.95 101.86 1086.17 97.08 C 1088.54 93.91 1088.90 89.80 1088.75 85.97 C 1088.53 80.78 1089.62 75.11 1086.70 70.45 C 1084.53 66.62 1079.48 65.37 1075.48 66.72 Z" />
<path fill="#ffffff" opacity="1.00" d=" M 1229.73 62.87 C 1233.86 58.44 1240.19 56.99 1246.05 57.02 C 1251.74 57.18 1257.85 58.75 1261.73 63.20 C 1264.11 65.86 1264.63 69.51 1264.89 72.94 C 1261.03 73.04 1257.17 72.98 1253.32 73.01 C 1253.72 66.05 1244.33 63.96 1239.84 67.84 C 1237.72 69.54 1237.66 73.39 1239.95 74.97 C 1244.79 78.37 1250.87 79.12 1256.05 81.87 C 1259.71 83.71 1263.36 86.40 1264.63 90.49 C 1266.04 95.25 1265.54 101.14 1261.63 104.62 C 1256.24 109.65 1248.19 110.30 1241.21 109.39 C 1235.77 108.45 1229.76 106.11 1227.17 100.87 C 1225.74 98.34 1225.64 95.36 1225.37 92.54 C 1229.25 92.52 1233.15 92.54 1237.05 92.53 C 1237.34 94.68 1237.49 97.11 1239.15 98.73 C 1242.19 101.16 1246.55 101.17 1250.15 100.17 C 1253.81 98.97 1254.76 93.55 1251.62 91.25 C 1247.77 88.35 1242.83 87.66 1238.53 85.65 C 1234.40 83.81 1229.84 81.73 1227.64 77.53 C 1225.61 72.80 1226.01 66.69 1229.73 62.87 Z" />
<path fill="#ffffff" opacity="1.00" d=" M 420.00 57.73 C 432.91 57.73 445.82 57.74 458.73 57.73 C 458.73 60.82 458.73 63.91 458.73 67.00 C 454.24 67.00 449.75 67.00 445.26 67.00 C 445.27 81.00 445.26 95.00 445.27 109.00 C 441.26 109.00 437.26 109.00 433.26 109.00 C 433.27 95.00 433.26 81.00 433.27 67.00 C 428.84 67.00 424.42 67.00 420.00 67.00 C 420.00 63.91 420.00 60.82 420.00 57.73 Z" />
<path fill="#ffffff" opacity="1.00" d=" M 581.73 57.73 C 585.73 57.73 589.73 57.74 593.74 57.73 C 593.79 69.49 593.61 81.25 593.82 93.00 C 594.08 100.80 605.18 103.04 609.97 97.95 C 611.65 96.06 612.08 93.43 612.01 90.97 C 611.99 79.89 612.00 68.81 612.00 57.73 C 616.00 57.73 620.00 57.73 624.00 57.73 C 623.98 69.16 624.03 80.59 623.99 92.02 C 623.91 96.91 621.85 101.86 617.98 104.95 C 612.38 109.59 604.55 110.45 597.58 109.29 C 592.23 108.41 587.11 105.44 584.22 100.77 C 582.23 97.57 581.66 93.71 581.72 90.01 C 581.75 79.25 581.72 68.49 581.73 57.73 Z" />
<path fill="#ffffff" opacity="1.00" d=" M 751.00 57.73 C 758.32 57.89 765.67 57.40 772.98 58.01 C 782.85 58.97 791.15 67.97 790.99 77.95 C 790.75 84.35 791.96 91.16 789.17 97.17 C 786.05 104.14 778.69 108.79 771.11 108.97 C 764.40 109.06 757.70 108.97 751.00 109.00 C 751.00 91.91 751.00 74.82 751.00 57.73 M 763.00 67.00 C 763.00 77.91 763.00 88.82 763.00 99.73 C 767.38 99.44 772.89 101.03 776.08 97.04 C 780.36 92.38 778.67 85.68 779.02 79.98 C 779.39 75.29 777.84 69.77 773.25 67.63 C 769.96 66.48 766.40 67.17 763.00 67.00 Z" />
<path fill="#ffffff" opacity="1.00" d=" M 917.73 57.73 C 921.73 57.73 925.73 57.74 929.73 57.73 C 929.73 74.82 929.73 91.91 929.73 109.00 C 925.73 109.00 921.73 109.00 917.73 109.00 C 917.73 91.91 917.73 74.82 917.73 57.73 Z" />
</g>
</svg>
